<svg xmlns="http://www.w3.org/2000/svg" viewBox="0 0 500 250">
  <defs>
    <linearGradient id="g" x1="0" y1="0" x2="0" y2="1">
      <stop offset="0%" stop-color="#3d3d3d"/>
      <stop offset="100%" stop-color="#222"/>
    </linearGradient>
  </defs>
  <path d="M 232,0 L 238,0 L 239,2 L 260,2 L 261,0 L 278,2 L 299,9 L 325,24 L 346,44 L 357,59 L 366,77 L 374,108 L 375,131 L 370,160 L 359,186 L 346,205 L 330,221 L 311,234 L 294,242 L 266,249 L 261,249 L 260,247 L 239,247 L 238,249 L 233,249 L 218,246 L 198,239 L 173,224 L 155,207 L 143,191 L 133,171 L 125,139 L 125,110 L 129,90 L 138,67 L 154,43 L 168,29 L 188,15 L 211,5 L 231,1 Z" fill="url(#g)" stroke="#666" stroke-width="2.5" stroke-linejoin="round"/>
  <path d="M 248,4 L 252,4 L 255,7 L 255,11 L 252,14 L 248,14 L 245,11 L 245,7 L 247,5 Z" fill="#222" stroke="#444" stroke-width="2" stroke-linejoin="round"/>
  <path d="M 181,25 L 185,26 L 188,30 L 187,34 L 183,37 L 179,36 L 176,32 L 177,28 L 179,26 L 180,26 Z" fill="#222" stroke="#444" stroke-width="2" stroke-linejoin="round"/>
  <path d="M 315,26 L 319,26 L 322,29 L 322,33 L 319,36 L 315,36 L 312,33 L 312,29 L 314,27 Z" fill="#222" stroke="#444" stroke-width="2" stroke-linejoin="round"/>
  <path d="M 248,38 L 252,38 L 255,41 L 255,45 L 252,48 L 248,48 L 245,45 L 245,41 L 247,39 Z" fill="#222" stroke="#444" stroke-width="2" stroke-linejoin="round"/>
  <path d="M 202,53 L 204,54 L 208,59 L 207,61 L 202,65 L 200,64 L 196,59 L 197,57 L 200,54 L 201,54 Z" fill="#222" stroke="#444" stroke-width="2" stroke-linejoin="round"/>
  <path d="M 296,54 L 300,54 L 303,57 L 303,61 L 300,64 L 296,64 L 293,61 L 293,57 L 295,55 Z" fill="#222" stroke="#444" stroke-width="2" stroke-linejoin="round"/>
  <path d="M 139,83 L 143,84 L 146,88 L 145,92 L 141,95 L 137,94 L 134,90 L 135,86 L 137,84 L 138,84 Z" fill="#222" stroke="#444" stroke-width="2" stroke-linejoin="round"/>
  <path d="M 358,83 L 362,84 L 365,88 L 364,92 L 360,95 L 356,94 L 353,90 L 354,86 L 356,84 L 357,84 Z" fill="#222" stroke="#444" stroke-width="2" stroke-linejoin="round"/>
  <path d="M 172,93 L 174,94 L 178,99 L 177,101 L 172,105 L 170,104 L 166,99 L 167,97 L 170,94 L 171,94 Z" fill="#222" stroke="#444" stroke-width="2" stroke-linejoin="round"/>
  <path d="M 326,93 L 330,94 L 333,98 L 332,102 L 328,105 L 324,104 L 321,100 L 322,96 L 324,94 L 325,94 Z" fill="#222" stroke="#444" stroke-width="2" stroke-linejoin="round"/>
  <path d="M 170,145 L 174,145 L 177,148 L 177,152 L 174,155 L 170,155 L 167,152 L 167,148 L 169,146 Z" fill="#222" stroke="#444" stroke-width="2" stroke-linejoin="round"/>
  <path d="M 325,145 L 329,145 L 332,148 L 332,152 L 329,155 L 325,155 L 322,152 L 322,148 L 324,146 Z" fill="#222" stroke="#444" stroke-width="2" stroke-linejoin="round"/>
  <path d="M 139,154 L 143,155 L 146,159 L 145,163 L 141,166 L 137,165 L 134,161 L 135,157 L 137,155 L 138,155 Z" fill="#222" stroke="#444" stroke-width="2" stroke-linejoin="round"/>
  <path d="M 358,154 L 362,155 L 365,159 L 364,163 L 360,166 L 356,165 L 353,161 L 354,157 L 356,155 L 357,155 Z" fill="#222" stroke="#444" stroke-width="2" stroke-linejoin="round"/>
  <path d="M 200,185 L 204,185 L 207,188 L 207,192 L 204,195 L 200,195 L 197,192 L 197,188 L 199,186 Z" fill="#222" stroke="#444" stroke-width="2" stroke-linejoin="round"/>
  <path d="M 295,185 L 300,185 L 303,188 L 303,192 L 300,195 L 295,195 L 292,192 L 292,188 L 294,186 Z" fill="#222" stroke="#444" stroke-width="2" stroke-linejoin="round"/>
  <path d="M 248,201 L 252,201 L 255,204 L 255,208 L 252,211 L 248,211 L 245,208 L 245,204 L 247,202 Z" fill="#222" stroke="#444" stroke-width="2" stroke-linejoin="round"/>
  <path d="M 180,213 L 184,213 L 187,216 L 187,220 L 184,223 L 180,223 L 177,220 L 177,216 L 179,214 Z" fill="#222" stroke="#444" stroke-width="2" stroke-linejoin="round"/>
  <path d="M 315,213 L 319,213 L 322,216 L 322,220 L 319,223 L 315,223 L 312,220 L 312,216 L 314,214 Z" fill="#222" stroke="#444" stroke-width="2" stroke-linejoin="round"/>
  <path d="M 248,235 L 252,235 L 255,238 L 255,242 L 252,245 L 248,245 L 245,242 L 245,238 L 247,236 Z" fill="#222" stroke="#444" stroke-width="2" stroke-linejoin="round"/>
  <path d="M 250,-2 C 257.17964,-2 263,3.82036 263,11 C 263,18.17964 257.17964,24 250,24 C 242.82036,24 237,18.17964 237,11 C 237,3.82036 242.82036,-2 250,-2 Z M 318,19 C 325.17964,19 331,24.82036 331,32 C 331,39.17964 325.17964,45 318,45 C 310.82036,45 305,39.17964 305,32 C 305,24.82036 310.82036,19 318,19 Z M 360,77 C 367.17964,77 373,82.82036 373,90 C 373,97.17964 367.17964,103 360,103 C 352.82036,103 347,97.17964 347,90 C 347,82.82036 352.82036,77 360,77 Z M 360,149 C 367.17964,149 373,154.82036 373,162 C 373,169.17964 367.17964,175 360,175 C 352.82036,175 347,169.17964 347,162 C 347,154.82036 352.82036,149 360,149 Z M 318,206 C 325.17964,206 331,211.82036 331,219 C 331,226.17964 325.17964,232 318,232 C 310.82036,232 305,226.17964 305,219 C 305,211.82036 310.82036,206 318,206 Z M 250,228 C 257.17964,228 263,233.82036 263,241 C 263,248.17964 257.17964,254 250,254 C 242.82036,254 237,248.17964 237,241 C 237,233.82036 242.82036,228 250,228 Z M 183,206 C 190.17964,206 196,211.82036 196,219 C 196,226.17964 190.17964,232 183,232 C 175.82036,232 170,226.17964 170,219 C 170,211.82036 175.82036,206 183,206 Z M 141,148 C 148.17964,148 154,153.82036 154,161 C 154,168.17964 148.17964,174 141,174 C 133.82036,174 128,168.17964 128,161 C 128,153.82036 133.82036,148 141,148 Z M 141,77 C 148.17964,77 154,82.82036 154,90 C 154,97.17964 148.17964,103 141,103 C 133.82036,103 128,97.17964 128,90 C 128,82.82036 133.82036,77 141,77 Z M 183,20 C 190.17964,20 196,25.82036 196,33 C 196,40.17964 190.17964,46 183,46 C 175.82036,46 170,40.17964 170,33 C 170,25.82036 175.82036,20 183,20 Z M 250,31 C 257.17964,31 263,36.82036 263,44 C 263,51.17964 257.17964,57 250,57 C 242.82036,57 237,51.17964 237,44 C 237,36.82036 242.82036,31 250,31 Z M 298,47 C 305.17964,47 311,52.82036 311,60 C 311,67.17964 305.17964,73 298,73 C 290.82036,73 285,67.17964 285,60 C 285,52.82036 290.82036,47 298,47 Z M 328,87 C 335.17964,87 341,92.82036 341,100 C 341,107.17964 335.17964,113 328,113 C 320.82036,113 315,107.17964 315,100 C 315,92.82036 320.82036,87 328,87 Z M 328,137 C 335.17964,137 341,142.82036 341,150 C 341,157.17964 335.17964,163 328,163 C 320.82036,163 315,157.17964 315,150 C 315,142.82036 320.82036,137 328,137 Z M 298,179 C 305.17964,179 311,184.82036 311,192 C 311,199.17964 305.17964,205 298,205 C 290.82036,205 285,199.17964 285,192 C 285,184.82036 290.82036,179 298,179 Z M 250,193 C 257.17964,193 263,198.82036 263,206 C 263,213.17964 257.17964,219 250,219 C 242.82036,219 237,213.17964 237,206 C 237,198.82036 242.82036,193 250,193 Z M 203,178 C 210.17964,178 216,183.82036 216,191 C 216,198.17964 210.17964,204 203,204 C 195.82036,204 190,198.17964 190,191 C 190,183.82036 195.82036,178 203,178 Z M 173,138 C 180.17964,138 186,143.82036 186,151 C 186,158.17964 180.17964,164 173,164 C 165.82036,164 160,158.17964 160,151 C 160,143.82036 165.82036,138 173,138 Z M 173,87 C 180.17964,87 186,92.82036 186,100 C 186,107.17964 180.17964,113 173,113 C 165.82036,113 160,107.17964 160,100 C 160,92.82036 165.82036,87 173,87 Z M 203,47 C 210.17964,47 216,52.82036 216,60 C 216,67.17964 210.17964,73 203,73 C 195.82036,73 190,67.17964 190,60 C 190,52.82036 195.82036,47 203,47 Z" fill="#555" stroke="#666" stroke-width="2" fill-rule="evenodd"/>
</svg>