<svg xmlns="http://www.w3.org/2000/svg" viewBox="0 0 500 250">
  <defs>
    <linearGradient id="g" x1="0" y1="0" x2="0" y2="1">
      <stop offset="0%" stop-color="#3d3d3d"/>
      <stop offset="100%" stop-color="#222"/>
    </linearGradient>
  </defs>
  <path d="M 243,2 L 259,3 L 266,7 L 272,14 L 275,22 L 275,68 L 279,70 L 280,77 L 283,77 L 286,81 L 303,91 L 316,104 L 327,123 L 333,144 L 333,181 L 330,194 L 324,208 L 309,228 L 295,239 L 279,247 L 220,247 L 209,242 L 198,235 L 183,220 L 174,206 L 166,181 L 165,154 L 167,138 L 171,125 L 184,103 L 197,90 L 213,81 L 216,77 L 220,76 L 220,70 L 224,68 L 224,22 L 230,10 L 234,6 L 242,3 Z" fill="url(#g)" stroke="#666" stroke-width="2.5" stroke-linejoin="round"/>
  <path d="M 250,6 C 258.83648,6 266,13.16352 266,22 C 266,30.83648 258.83648,38 250,38 C 241.16352,38 234,30.83648 234,22 C 234,13.16352 241.16352,6 250,6 Z M 250,122 C 258.83648,122 266,129.16352 266,138 C 266,146.83648 258.83648,154 250,154 C 241.16352,154 234,146.83648 234,138 C 234,129.16352 241.16352,122 250,122 Z" fill="#555" stroke="#666" stroke-width="2" fill-rule="evenodd"/>
</svg>