<svg xmlns="http://www.w3.org/2000/svg" viewBox="0 0 500 250">
  <defs>
    <linearGradient id="g" x1="0" y1="0" x2="0" y2="1">
      <stop offset="0%" stop-color="#3d3d3d"/>
      <stop offset="100%" stop-color="#222"/>
    </linearGradient>
  </defs>
  <path d="M 242,0 L 256,0 L 257,2 L 272,8 L 280,17 L 287,38 L 287,249 L 212,249 L 212,35 L 217,20 L 221,14 L 227,8 L 242,1 Z" fill="url(#g)" stroke="#666" stroke-width="2.5" stroke-linejoin="round"/>
  <path d="M 156,38 L 170,38 L 182,43 L 190,50 L 197,62 L 197,249 L 126,249 L 126,69 L 131,56 L 143,44 L 155,39 Z" fill="url(#g)" stroke="#666" stroke-width="2.5" stroke-linejoin="round"/>
  <path d="M 329,38 L 342,38 L 354,43 L 366,54 L 372,67 L 373,249 L 301,249 L 301,66 L 306,54 L 317,43 L 328,39 Z" fill="url(#g)" stroke="#666" stroke-width="2.5" stroke-linejoin="round"/>
  <path d="M 419,111 L 425,111 L 444,119 L 454,130 L 457,139 L 459,140 L 459,249 L 388,249 L 388,139 L 397,123 L 409,115 L 418,112 Z" fill="url(#g)" stroke="#666" stroke-width="2.5" stroke-linejoin="round"/>
  <path d="M 57,164 L 77,165 L 89,171 L 96,180 L 102,195 L 102,249 L 30,249 L 30,193 L 35,181 L 47,169 L 56,165 Z" fill="url(#g)" stroke="#666" stroke-width="2.5" stroke-linejoin="round"/>
  <path d="M 425,134 C 432.73192,134 439,140.26808 439,148 C 439,155.73192 432.73192,162 425,162 C 417.26808,162 411,155.73192 411,148 C 411,140.26808 417.26808,134 425,134 Z M 425,160 C 432.73192,160 439,166.26808 439,174 C 439,181.73192 432.73192,188 425,188 C 417.26808,188 411,181.73192 411,174 C 411,166.26808 417.26808,160 425,160 Z M 337,61 C 344.73192,61 351,67.26808 351,75 C 351,82.73192 344.73192,89 337,89 C 329.26808,89 323,82.73192 323,75 C 323,67.26808 329.26808,61 337,61 Z M 337,86 C 344.73192,86 351,92.26808 351,100 C 351,107.73192 344.73192,114 337,114 C 329.26808,114 323,107.73192 323,100 C 323,92.26808 329.26808,86 337,86 Z M 251,23 C 258.73192,23 265,29.26808 265,37 C 265,44.73192 258.73192,51 251,51 C 243.26808,51 237,44.73192 237,37 C 237,29.26808 243.26808,23 251,23 Z M 251,49 C 258.73192,49 265,55.26808 265,63 C 265,70.73192 258.73192,77 251,77 C 243.26808,77 237,70.73192 237,63 C 237,55.26808 243.26808,49 251,49 Z M 163,61 C 170.73192,61 177,67.26808 177,75 C 177,82.73192 170.73192,89 163,89 C 155.26808,89 149,82.73192 149,75 C 149,67.26808 155.26808,61 163,61 Z M 163,87 C 170.73192,87 177,93.26808 177,101 C 177,108.73192 170.73192,115 163,115 C 155.26808,115 149,108.73192 149,101 C 149,93.26808 155.26808,87 163,87 Z M 66,185 C 73.73192,185 80,191.26808 80,199 C 80,206.73192 73.73192,213 66,213 C 58.26808,213 52,206.73192 52,199 C 52,191.26808 58.26808,185 66,185 Z M 66,213 C 73.73192,213 80,219.26808 80,227 C 80,234.73192 73.73192,241 66,241 C 58.26808,241 52,234.73192 52,227 C 52,219.26808 58.26808,213 66,213 Z" fill="#555" stroke="#666" stroke-width="2" fill-rule="evenodd"/>
</svg>