<svg xmlns="http://www.w3.org/2000/svg" viewBox="0 0 500 250">
  <defs>
    <linearGradient id="g" x1="0" y1="0" x2="0" y2="1">
      <stop offset="0%" stop-color="#3d3d3d"/>
      <stop offset="100%" stop-color="#222"/>
    </linearGradient>
  </defs>
  <path d="M 136,7 L 163,7 L 174,15 L 195,15 L 203,19 L 209,28 L 211,65 L 214,80 L 216,120 L 217,131 L 219,134 L 221,161 L 222,204 L 217,233 L 210,241 L 207,242 L 91,242 L 84,237 L 81,229 L 78,204 L 76,200 L 76,180 L 78,178 L 81,127 L 83,121 L 89,31 L 93,22 L 100,16 L 126,15 L 135,8 Z" fill="url(#g)" stroke="#666" stroke-width="2.5" stroke-linejoin="round"/>
  <path d="M 335,7 L 361,7 L 372,15 L 394,15 L 401,19 L 407,27 L 410,70 L 412,74 L 416,142 L 421,180 L 419,217 L 417,220 L 415,233 L 409,241 L 289,242 L 281,235 L 277,218 L 276,195 L 274,189 L 276,185 L 281,104 L 283,101 L 288,29 L 290,24 L 301,15 L 325,15 L 329,10 L 334,8 Z" fill="url(#g)" stroke="#666" stroke-width="2.5" stroke-linejoin="round"/>
  <path d="M 150,177 C 157.73192,177 164,183.26808 164,191 C 164,198.73192 157.73192,205 150,205 C 142.26808,205 136,198.73192 136,191 C 136,183.26808 142.26808,177 150,177 Z M 150,208 C 157.73192,208 164,214.26808 164,222 C 164,229.73192 157.73192,236 150,236 C 142.26808,236 136,229.73192 136,222 C 136,214.26808 142.26808,208 150,208 Z M 353,202 C 360.73192,202 367,208.26808 367,216 C 367,223.73192 360.73192,230 353,230 C 345.26808,230 339,223.73192 339,216 C 339,208.26808 345.26808,202 353,202 Z" fill="#555" stroke="#666" stroke-width="2" fill-rule="evenodd"/>
</svg>