<svg xmlns="http://www.w3.org/2000/svg" viewBox="0 0 500 250">
  <defs>
    <linearGradient id="g" x1="0" y1="0" x2="0" y2="1">
      <stop offset="0%" stop-color="#3d3d3d"/>
      <stop offset="100%" stop-color="#222"/>
    </linearGradient>
  </defs>
  <path d="M 120,14 L 149,16 L 171,23 L 191,34 L 214,55 L 227,75 L 234,92 L 238,109 L 239,138 L 232,168 L 220,191 L 198,215 L 180,227 L 158,236 L 137,240 L 115,240 L 94,236 L 72,227 L 54,215 L 47,208 L 45,209 L 47,211 L 48,219 L 45,226 L 39,230 L 30,230 L 25,227 L 22,222 L 23,210 L 32,204 L 37,204 L 44,208 L 45,206 L 38,199 L 26,181 L 15,151 L 13,138 L 13,116 L 21,84 L 26,73 L 38,55 L 61,34 L 83,22 L 95,18 L 109,15 L 119,15 Z" fill="url(#g)" stroke="#666" stroke-width="2.5" stroke-linejoin="round"/>
  <path d="M 370,14 L 392,15 L 407,18 L 433,29 L 449,40 L 464,55 L 476,73 L 484,92 L 489,116 L 489,138 L 485,159 L 476,181 L 464,199 L 448,215 L 430,227 L 408,236 L 387,240 L 365,240 L 344,236 L 322,227 L 304,215 L 288,199 L 276,181 L 267,159 L 263,138 L 263,116 L 268,92 L 276,73 L 288,55 L 311,34 L 333,22 L 353,16 L 369,15 Z" fill="url(#g)" stroke="#666" stroke-width="2.5" stroke-linejoin="round"/>
  <path d="M 33,30 L 36,30 L 39,33 L 39,35 L 35,39 L 34,38 L 32,38 L 30,36 L 30,32 L 32,31 Z" fill="#222" stroke="#444" stroke-width="2" stroke-linejoin="round"/>
  <path d="M 215,31 L 218,31 L 220,32 L 221,34 L 221,37 L 219,39 L 216,40 L 212,37 L 212,33 L 214,32 Z" fill="#222" stroke="#444" stroke-width="2" stroke-linejoin="round"/>
  <path d="M 58,51 L 59,51 L 68,60 L 68,61 L 59,70 L 49,60 L 57,52 Z" fill="#222" stroke="#444" stroke-width="2" stroke-linejoin="round"/>
  <path d="M 193,51 L 194,51 L 203,60 L 193,70 L 184,61 L 184,60 L 192,52 Z" fill="#222" stroke="#444" stroke-width="2" stroke-linejoin="round"/>
  <path d="M 308,51 L 309,51 L 318,60 L 318,61 L 309,70 L 299,60 L 307,52 Z" fill="#222" stroke="#444" stroke-width="2" stroke-linejoin="round"/>
  <path d="M 443,51 L 444,51 L 453,60 L 443,70 L 434,61 L 434,60 L 442,52 Z" fill="#222" stroke="#444" stroke-width="2" stroke-linejoin="round"/>
  <path d="M 75,67 L 85,77 L 76,86 L 75,86 L 66,77 L 66,76 L 74,68 Z" fill="#222" stroke="#444" stroke-width="2" stroke-linejoin="round"/>
  <path d="M 177,67 L 186,76 L 186,77 L 177,86 L 176,86 L 167,77 L 176,68 Z" fill="#222" stroke="#444" stroke-width="2" stroke-linejoin="round"/>
  <path d="M 325,67 L 335,77 L 326,86 L 325,86 L 316,77 L 316,76 L 324,68 Z" fill="#222" stroke="#444" stroke-width="2" stroke-linejoin="round"/>
  <path d="M 427,67 L 436,76 L 436,77 L 427,86 L 426,86 L 417,77 L 426,68 Z" fill="#222" stroke="#444" stroke-width="2" stroke-linejoin="round"/>
  <path d="M 91,84 L 92,84 L 101,93 L 92,102 L 91,102 L 82,93 L 90,85 Z" fill="#222" stroke="#444" stroke-width="2" stroke-linejoin="round"/>
  <path d="M 160,84 L 161,84 L 170,93 L 161,102 L 160,102 L 151,93 L 159,85 Z" fill="#222" stroke="#444" stroke-width="2" stroke-linejoin="round"/>
  <path d="M 341,84 L 342,84 L 351,93 L 342,102 L 341,102 L 332,93 L 340,85 Z" fill="#222" stroke="#444" stroke-width="2" stroke-linejoin="round"/>
  <path d="M 410,84 L 411,84 L 420,93 L 411,102 L 410,102 L 401,93 L 409,85 Z" fill="#222" stroke="#444" stroke-width="2" stroke-linejoin="round"/>
  <path d="M 118,116 L 119,116 L 121,118 L 121,121 L 118,123 L 115,120 L 115,119 L 117,117 Z" fill="#222" stroke="#444" stroke-width="2" stroke-linejoin="round"/>
  <path d="M 133,116 L 134,116 L 137,119 L 137,120 L 134,123 L 131,121 L 131,118 L 132,117 Z" fill="#222" stroke="#444" stroke-width="2" stroke-linejoin="round"/>
  <path d="M 368,116 L 369,116 L 371,118 L 371,121 L 368,123 L 365,120 L 365,119 L 367,117 Z" fill="#222" stroke="#444" stroke-width="2" stroke-linejoin="round"/>
  <path d="M 383,116 L 384,116 L 387,119 L 387,120 L 384,123 L 381,121 L 381,118 L 382,117 Z" fill="#222" stroke="#444" stroke-width="2" stroke-linejoin="round"/>
  <path d="M 117,132 L 119,132 L 122,135 L 119,138 L 117,138 L 115,136 L 115,134 L 116,133 Z" fill="#222" stroke="#444" stroke-width="2" stroke-linejoin="round"/>
  <path d="M 133,132 L 135,132 L 137,134 L 137,136 L 135,138 L 133,138 L 131,136 L 131,134 L 132,133 Z" fill="#222" stroke="#444" stroke-width="2" stroke-linejoin="round"/>
  <path d="M 367,132 L 369,132 L 372,135 L 369,138 L 367,138 L 365,136 L 365,134 L 366,133 Z" fill="#222" stroke="#444" stroke-width="2" stroke-linejoin="round"/>
  <path d="M 383,132 L 385,132 L 387,134 L 387,136 L 385,138 L 383,138 L 381,136 L 381,134 L 382,133 Z" fill="#222" stroke="#444" stroke-width="2" stroke-linejoin="round"/>
  <path d="M 92,152 L 101,161 L 101,162 L 92,171 L 83,162 L 83,161 L 91,153 Z" fill="#222" stroke="#444" stroke-width="2" stroke-linejoin="round"/>
  <path d="M 160,152 L 169,161 L 169,162 L 160,171 L 151,162 L 151,161 L 159,153 Z" fill="#222" stroke="#444" stroke-width="2" stroke-linejoin="round"/>
  <path d="M 342,152 L 351,161 L 351,162 L 342,171 L 333,162 L 333,161 L 341,153 Z" fill="#222" stroke="#444" stroke-width="2" stroke-linejoin="round"/>
  <path d="M 410,152 L 419,161 L 419,162 L 410,171 L 401,162 L 401,161 L 409,153 Z" fill="#222" stroke="#444" stroke-width="2" stroke-linejoin="round"/>
  <path d="M 76,168 L 85,177 L 85,178 L 76,187 L 75,187 L 66,178 L 75,169 Z" fill="#222" stroke="#444" stroke-width="2" stroke-linejoin="round"/>
  <path d="M 176,168 L 186,178 L 177,187 L 176,187 L 167,178 L 167,177 L 175,169 Z" fill="#222" stroke="#444" stroke-width="2" stroke-linejoin="round"/>
  <path d="M 326,168 L 335,177 L 335,178 L 326,187 L 325,187 L 316,178 L 325,169 Z" fill="#222" stroke="#444" stroke-width="2" stroke-linejoin="round"/>
  <path d="M 426,168 L 436,178 L 427,187 L 426,187 L 417,178 L 417,177 L 425,169 Z" fill="#222" stroke="#444" stroke-width="2" stroke-linejoin="round"/>
  <path d="M 59,185 L 68,194 L 68,195 L 59,204 L 49,194 L 58,186 Z" fill="#222" stroke="#444" stroke-width="2" stroke-linejoin="round"/>
  <path d="M 193,185 L 203,194 L 193,204 L 184,195 L 184,194 L 192,186 Z" fill="#222" stroke="#444" stroke-width="2" stroke-linejoin="round"/>
  <path d="M 309,185 L 318,194 L 318,195 L 309,204 L 300,195 L 300,194 L 308,186 Z" fill="#222" stroke="#444" stroke-width="2" stroke-linejoin="round"/>
  <path d="M 443,185 L 452,194 L 452,195 L 443,204 L 434,195 L 434,194 L 442,186 Z" fill="#222" stroke="#444" stroke-width="2" stroke-linejoin="round"/>
  <path d="M 33,213 L 36,213 L 38,214 L 39,216 L 39,219 L 37,221 L 34,222 L 30,219 L 30,215 L 32,214 Z" fill="#222" stroke="#444" stroke-width="2" stroke-linejoin="round"/>
  <path d="M 216,213 L 219,213 L 221,214 L 222,216 L 222,219 L 220,221 L 217,222 L 213,219 L 213,215 L 215,214 Z" fill="#222" stroke="#444" stroke-width="2" stroke-linejoin="round"/>
  <path d="M 161,146 C 169.2842,146 176,152.7158 176,161 C 176,169.2842 169.2842,176 161,176 C 152.7158,176 146,169.2842 146,161 C 146,152.7158 152.7158,146 161,146 Z M 178,163 C 186.2842,163 193,169.7158 193,178 C 193,186.2842 186.2842,193 178,193 C 169.7158,193 163,186.2842 163,178 C 163,169.7158 169.7158,163 178,163 Z M 195,180 C 203.2842,180 210,186.7158 210,195 C 210,203.2842 203.2842,210 195,210 C 186.7158,210 180,203.2842 180,195 C 180,186.7158 186.7158,180 195,180 Z M 218,203 C 226.2842,203 233,209.7158 233,218 C 233,226.2842 226.2842,233 218,233 C 209.7158,233 203,226.2842 203,218 C 203,209.7158 209.7158,203 218,203 Z M 309,179 C 317.2842,179 324,185.7158 324,194 C 324,202.2842 317.2842,209 309,209 C 300.7158,209 294,202.2842 294,194 C 294,185.7158 300.7158,179 309,179 Z M 325,163 C 333.2842,163 340,169.7158 340,178 C 340,186.2842 333.2842,193 325,193 C 316.7158,193 310,186.2842 310,178 C 310,169.7158 316.7158,163 325,163 Z M 341,147 C 349.2842,147 356,153.7158 356,162 C 356,170.2842 349.2842,177 341,177 C 332.7158,177 326,170.2842 326,162 C 326,153.7158 332.7158,147 341,147 Z M 410,146 C 418.2842,146 425,152.7158 425,161 C 425,169.2842 418.2842,176 410,176 C 401.7158,176 395,169.2842 395,161 C 395,152.7158 401.7158,146 410,146 Z M 427,163 C 435.2842,163 442,169.7158 442,178 C 442,186.2842 435.2842,193 427,193 C 418.7158,193 412,186.2842 412,178 C 412,169.7158 418.7158,163 427,163 Z M 443,179 C 451.2842,179 458,185.7158 458,194 C 458,202.2842 451.2842,209 443,209 C 434.7158,209 428,202.2842 428,194 C 428,185.7158 434.7158,179 443,179 Z M 36,203 C 44.2842,203 51,209.7158 51,218 C 51,226.2842 44.2842,233 36,233 C 27.7158,233 21,226.2842 21,218 C 21,209.7158 27.7158,203 36,203 Z M 58,180 C 66.2842,180 73,186.7158 73,195 C 73,203.2842 66.2842,210 58,210 C 49.7158,210 43,203.2842 43,195 C 43,186.7158 49.7158,180 58,180 Z M 76,163 C 84.2842,163 91,169.7158 91,178 C 91,186.2842 84.2842,193 76,193 C 67.7158,193 61,186.2842 61,178 C 61,169.7158 67.7158,163 76,163 Z M 93,146 C 101.2842,146 108,152.7158 108,161 C 108,169.2842 101.2842,176 93,176 C 84.7158,176 78,169.2842 78,161 C 78,152.7158 84.7158,146 93,146 Z M 92,78 C 100.2842,78 107,84.7158 107,93 C 107,101.2842 100.2842,108 92,108 C 83.7158,108 77,101.2842 77,93 C 77,84.7158 83.7158,78 92,78 Z M 76,62 C 84.2842,62 91,68.7158 91,77 C 91,85.2842 84.2842,92 76,92 C 67.7158,92 61,85.2842 61,77 C 61,68.7158 67.7158,62 76,62 Z M 59,45 C 67.2842,45 74,51.7158 74,60 C 74,68.2842 67.2842,75 59,75 C 50.7158,75 44,68.2842 44,60 C 44,51.7158 50.7158,45 59,45 Z M 35,20 C 43.2842,20 50,26.7158 50,35 C 50,43.2842 43.2842,50 35,50 C 26.7158,50 20,43.2842 20,35 C 20,26.7158 26.7158,20 35,20 Z M 442,45 C 450.2842,45 457,51.7158 457,60 C 457,68.2842 450.2842,75 442,75 C 433.7158,75 427,68.2842 427,60 C 427,51.7158 433.7158,45 442,45 Z M 426,61 C 434.2842,61 441,67.7158 441,76 C 441,84.2842 434.2842,91 426,91 C 417.7158,91 411,84.2842 411,76 C 411,67.7158 417.7158,61 426,61 Z M 410,78 C 418.2842,78 425,84.7158 425,93 C 425,101.2842 418.2842,108 410,108 C 401.7158,108 395,101.2842 395,93 C 395,84.7158 401.7158,78 410,78 Z M 342,78 C 350.2842,78 357,84.7158 357,93 C 357,101.2842 350.2842,108 342,108 C 333.7158,108 327,101.2842 327,93 C 327,84.7158 333.7158,78 342,78 Z M 325,61 C 333.2842,61 340,67.7158 340,76 C 340,84.2842 333.2842,91 325,91 C 316.7158,91 310,84.2842 310,76 C 310,67.7158 316.7158,61 325,61 Z M 309,45 C 317.2842,45 324,51.7158 324,60 C 324,68.2842 317.2842,75 309,75 C 300.7158,75 294,68.2842 294,60 C 294,51.7158 300.7158,45 309,45 Z M 217,21 C 225.2842,21 232,27.7158 232,36 C 232,44.2842 225.2842,51 217,51 C 208.7158,51 202,44.2842 202,36 C 202,27.7158 208.7158,21 217,21 Z M 192,46 C 200.2842,46 207,52.7158 207,61 C 207,69.2842 200.2842,76 192,76 C 183.7158,76 177,69.2842 177,61 C 177,52.7158 183.7158,46 192,46 Z M 176,62 C 184.2842,62 191,68.7158 191,77 C 191,85.2842 184.2842,92 176,92 C 167.7158,92 161,85.2842 161,77 C 161,68.7158 167.7158,62 176,62 Z M 159,78 C 167.2842,78 174,84.7158 174,93 C 174,101.2842 167.2842,108 159,108 C 150.7158,108 144,101.2842 144,93 C 144,84.7158 150.7158,78 159,78 Z" fill="#555" stroke="#666" stroke-width="2" fill-rule="evenodd"/>
</svg>