<svg xmlns="http://www.w3.org/2000/svg" viewBox="0 0 500 250">
  <defs>
    <linearGradient id="g" x1="0" y1="0" x2="0" y2="1">
      <stop offset="0%" stop-color="#3d3d3d"/>
      <stop offset="100%" stop-color="#222"/>
    </linearGradient>
  </defs>
  <path d="M 221,0 L 225,0 L 230,7 L 269,7 L 274,0 L 278,0 L 294,5 L 311,13 L 327,24 L 341,37 L 343,40 L 339,48 L 341,53 L 357,81 L 359,83 L 367,83 L 371,93 L 374,109 L 374,140 L 371,156 L 367,166 L 359,166 L 357,168 L 341,196 L 339,201 L 343,209 L 332,221 L 311,236 L 294,244 L 278,249 L 274,249 L 269,242 L 230,242 L 225,249 L 221,249 L 205,244 L 188,236 L 173,226 L 158,212 L 156,209 L 160,201 L 158,196 L 142,168 L 140,166 L 132,166 L 128,156 L 125,140 L 125,109 L 128,93 L 132,83 L 140,83 L 142,81 L 158,53 L 160,48 L 156,40 L 167,28 L 188,13 L 205,5 L 220,1 Z" fill="url(#g)" stroke="#666" stroke-width="2.5" stroke-linejoin="round"/>
  <path d="M 300,26 C 307.73192,26 314,32.26808 314,40 C 314,47.73192 307.73192,54 300,54 C 292.26808,54 286,47.73192 286,40 C 286,32.26808 292.26808,26 300,26 Z M 350,111 C 357.73192,111 364,117.26808 364,125 C 364,132.73192 357.73192,139 350,139 C 342.26808,139 336,132.73192 336,125 C 336,117.26808 342.26808,111 350,111 Z M 300,198 C 307.73192,198 314,204.26808 314,212 C 314,219.73192 307.73192,226 300,226 C 292.26808,226 286,219.73192 286,212 C 286,204.26808 292.26808,198 300,198 Z M 200,198 C 207.73192,198 214,204.26808 214,212 C 214,219.73192 207.73192,226 200,226 C 192.26808,226 186,219.73192 186,212 C 186,204.26808 192.26808,198 200,198 Z M 150,111 C 157.73192,111 164,117.26808 164,125 C 164,132.73192 157.73192,139 150,139 C 142.26808,139 136,132.73192 136,125 C 136,117.26808 142.26808,111 150,111 Z M 200,26 C 207.73192,26 214,32.26808 214,40 C 214,47.73192 207.73192,54 200,54 C 192.26808,54 186,47.73192 186,40 C 186,32.26808 192.26808,26 200,26 Z" fill="#555" stroke="#666" stroke-width="2" fill-rule="evenodd"/>
</svg>