<svg xmlns="http://www.w3.org/2000/svg" viewBox="0 0 500 250">
  <defs>
    <linearGradient id="g" x1="0" y1="0" x2="0" y2="1">
      <stop offset="0%" stop-color="#3d3d3d"/>
      <stop offset="100%" stop-color="#222"/>
    </linearGradient>
  </defs>
  <path d="M 237,2 L 262,2 L 283,6 L 300,12 L 325,27 L 343,44 L 359,67 L 367,86 L 372,107 L 373,132 L 370,154 L 362,177 L 349,199 L 328,221 L 314,231 L 291,242 L 272,247 L 267,247 L 265,245 L 234,245 L 232,247 L 227,247 L 203,240 L 179,227 L 154,204 L 142,187 L 134,170 L 127,143 L 126,118 L 130,93 L 137,73 L 151,50 L 169,31 L 189,17 L 212,7 L 236,3 Z" fill="url(#g)" stroke="#666" stroke-width="2.5" stroke-linejoin="round"/>
  <path d="M 201,33 L 202,33 L 205,39 L 207,41 L 198,46 L 197,43 L 194,39 L 194,37 L 200,34 Z" fill="#222" stroke="#444" stroke-width="2" stroke-linejoin="round"/>
  <path d="M 297,33 L 305,37 L 305,39 L 302,43 L 301,46 L 292,41 L 297,34 Z" fill="#222" stroke="#444" stroke-width="2" stroke-linejoin="round"/>
  <path d="M 198,204 L 202,207 L 207,209 L 205,211 L 202,217 L 193,213 L 198,205 Z" fill="#222" stroke="#444" stroke-width="2" stroke-linejoin="round"/>
  <path d="M 301,204 L 302,207 L 304,209 L 306,213 L 297,217 L 294,211 L 292,209 L 300,205 Z" fill="#222" stroke="#444" stroke-width="2" stroke-linejoin="round"/>
  <path d="M 300,26 C 307.73192,26 314,32.26808 314,40 C 314,47.73192 307.73192,54 300,54 C 292.26808,54 286,47.73192 286,40 C 286,32.26808 292.26808,26 300,26 Z M 350,111 C 357.73192,111 364,117.26808 364,125 C 364,132.73192 357.73192,139 350,139 C 342.26808,139 336,132.73192 336,125 C 336,117.26808 342.26808,111 350,111 Z M 300,198 C 307.73192,198 314,204.26808 314,212 C 314,219.73192 307.73192,226 300,226 C 292.26808,226 286,219.73192 286,212 C 286,204.26808 292.26808,198 300,198 Z M 200,198 C 207.73192,198 214,204.26808 214,212 C 214,219.73192 207.73192,226 200,226 C 192.26808,226 186,219.73192 186,212 C 186,204.26808 192.26808,198 200,198 Z M 150,111 C 157.73192,111 164,117.26808 164,125 C 164,132.73192 157.73192,139 150,139 C 142.26808,139 136,132.73192 136,125 C 136,117.26808 142.26808,111 150,111 Z M 200,26 C 207.73192,26 214,32.26808 214,40 C 214,47.73192 207.73192,54 200,54 C 192.26808,54 186,47.73192 186,40 C 186,32.26808 192.26808,26 200,26 Z" fill="#555" stroke="#666" stroke-width="2" fill-rule="evenodd"/>
</svg>