<svg xmlns="http://www.w3.org/2000/svg" viewBox="0 0 500 250">
  <defs>
    <linearGradient id="g" x1="0" y1="0" x2="0" y2="1">
      <stop offset="0%" stop-color="#3d3d3d"/>
      <stop offset="100%" stop-color="#222"/>
    </linearGradient>
  </defs>
  <path d="M 222,5 L 278,5 L 288,7 L 298,13 L 307,22 L 313,33 L 316,46 L 316,229 L 313,239 L 306,244 L 290,247 L 209,247 L 194,244 L 186,237 L 184,229 L 185,39 L 192,23 L 204,11 L 212,7 L 221,6 Z" fill="url(#g)" stroke="#666" stroke-width="2.5" stroke-linejoin="round"/>
  <path d="M 300,210 C 306.62736,210 312,215.37264 312,222 C 312,228.62736 306.62736,234 300,234 C 293.37264,234 288,228.62736 288,222 C 288,215.37264 293.37264,210 300,210 Z M 200,210 C 206.62736,210 212,215.37264 212,222 C 212,228.62736 206.62736,234 200,234 C 193.37264,234 188,228.62736 188,222 C 188,215.37264 193.37264,210 200,210 Z M 200,118 C 206.62736,118 212,123.37264 212,130 C 212,136.62736 206.62736,142 200,142 C 193.37264,142 188,136.62736 188,130 C 188,123.37264 193.37264,118 200,118 Z M 200,28 C 206.62736,28 212,33.372640000000004 212,40 C 212,46.627359999999996 206.62736,52 200,52 C 193.37264,52 188,46.627359999999996 188,40 C 188,33.372640000000004 193.37264,28 200,28 Z M 300,28 C 306.62736,28 312,33.372640000000004 312,40 C 312,46.627359999999996 306.62736,52 300,52 C 293.37264,52 288,46.627359999999996 288,40 C 288,33.372640000000004 293.37264,28 300,28 Z M 300,118 C 306.62736,118 312,123.37264 312,130 C 312,136.62736 306.62736,142 300,142 C 293.37264,142 288,136.62736 288,130 C 288,123.37264 293.37264,118 300,118 Z" fill="#555" stroke="#666" stroke-width="2" fill-rule="evenodd"/>
</svg>